<?xml version="1.0" standalone="no"?>
<!DOCTYPE svg PUBLIC "-//W3C//DTD SVG 20010904//EN"
 "http://www.w3.org/TR/2001/REC-SVG-20010904/DTD/svg10.dtd">
<svg version="1.0" xmlns="http://www.w3.org/2000/svg"
 width="215.000000pt" height="215.000000pt" viewBox="0 0 215.000000 215.000000"
 preserveAspectRatio="xMidYMid meet">
<metadata>
Created by potrace 1.11, written by Peter Selinger 2001-2013
</metadata>
<g transform="translate(0.000000,215.000000) scale(0.100000,-0.100000)"
fill="#000000" stroke="none">
<path d="M617 1565 c-2 -6 -86 -10 -208 -11 -213 -1 -254 -8 -302 -52 -47 -42
-50 -63 -50 -323 0 -236 1 -248 21 -282 16 -25 38 -41 80 -58 54 -22 70 -23
297 -24 132 0 247 -5 255 -10 14 -8 622 -16 646 -8 5 2 9 17 8 33 -1 17 2 30
7 30 5 0 9 -6 9 -14 0 -8 5 -18 11 -21 17 -11 132 -13 160 -3 24 8 69 78 50
78 -5 0 -6 12 -2 28 4 15 4 42 0 60 -4 17 -3 32 1 32 5 0 5 12 1 28 -5 15 -5
34 -2 44 5 13 208 270 246 312 6 6 33 39 60 74 34 45 45 66 37 71 -19 11 -185
5 -209 -7 -12 -7 -70 -72 -129 -147 -77 -97 -113 -135 -128 -135 -20 1 -86 77
-86 100 0 5 -4 10 -10 10 -15 0 -12 26 4 39 17 14 11 65 -11 99 -8 13 -36 33
-61 45 -44 19 -65 21 -370 21 -200 1 -323 -3 -325 -9z m-5 -179 c4 -6 87 -10
202 -10 108 -1 196 -3 196 -6 0 -6 -229 -230 -236 -230 -2 0 -4 28 -4 63 l0
63 -237 0 -238 -1 -1 45 c-2 56 3 70 30 79 30 12 280 9 288 -3z m673 -188 c22
-27 49 -61 59 -73 21 -26 29 -112 12 -123 -9 -6 -386 -11 -386 -5 0 1 30 30
66 65 37 35 94 91 128 125 33 34 66 62 71 62 6 0 28 -23 50 -51z m-545 -95 c0
-1 -30 -30 -66 -65 l-65 -64 -145 1 c-94 1 -148 5 -156 13 -11 11 -21 98 -13
111 3 5 445 9 445 4z"/>
<path d="M1988 1520 c2 -22 8 -38 12 -35 5 3 6 19 4 35 -4 24 -2 29 10 24 9
-3 16 -1 16 5 0 6 -10 11 -23 11 -20 0 -22 -4 -19 -40z"/>
<path d="M2038 1531 c-5 -32 5 -42 16 -15 3 9 2 23 -3 31 -6 12 -9 8 -13 -16z"/>
<path d="M2079 1548 c-3 -14 -6 -23 -14 -41 -11 -27 -2 -28 17 -3 11 15 13 27
7 37 -5 8 -9 11 -10 7z"/>
<path d="M2090 1489 c0 -5 5 -7 10 -4 6 3 10 8 10 11 0 2 -4 4 -10 4 -5 0 -10
-5 -10 -11z"/>
<path d="M88 723 c-28 -33 -29 -63 -3 -89 26 -26 42 -29 65 -13 12 9 11 10 -7
6 -44 -10 -65 50 -32 89 7 8 18 13 26 10 7 -3 13 -1 13 4 0 17 -46 11 -62 -7z"/>
<path d="M221 718 c-35 -37 -9 -108 39 -108 48 0 75 75 39 111 -25 25 -53 24
-78 -3z m53 6 c21 -8 22 -77 1 -94 -34 -28 -65 56 -33 88 14 14 12 14 32 6z"/>
<path d="M379 738 c-1 -4 -1 -90 0 -110 2 -32 21 -19 21 15 l1 32 28 -32 c36
-43 48 -42 22 2 -11 19 -16 35 -12 35 15 0 22 32 10 46 -9 11 -67 21 -70 12z
m46 -31 c0 -26 -20 -25 -23 2 -3 16 1 22 10 19 7 -3 13 -12 13 -21z"/>
<path d="M527 733 c-8 -16 -2 -113 8 -113 6 0 11 5 11 10 1 6 2 15 3 20 0 6 6
10 13 10 37 0 54 52 24 72 -14 10 -54 10 -59 1z m53 -33 c0 -28 -27 -33 -33
-5 -2 14 1 26 7 28 17 6 26 -2 26 -23z"/>
<path d="M678 727 c-48 -37 -25 -117 33 -113 51 4 73 67 37 106 -21 23 -45 25
-70 7z m46 -13 c21 -20 20 -58 -1 -79 -16 -16 -18 -16 -34 4 -17 21 -16 54 4
79 12 15 12 15 31 -4z"/>
<path d="M828 728 c-7 -20 -2 -107 6 -115 11 -11 24 17 19 38 -8 29 11 22 31
-11 9 -17 22 -28 27 -24 5 3 1 18 -11 34 -17 24 -18 29 -5 40 22 19 1 50 -34
50 -16 0 -31 -6 -33 -12z m47 -23 c0 -10 -5 -20 -11 -22 -7 -2 -11 7 -11 22 0
15 4 24 11 22 6 -2 11 -12 11 -22z"/>
<path d="M994 723 c-3 -10 -12 -36 -20 -58 -8 -22 -10 -43 -5 -48 5 -5 11 3
15 17 7 30 36 35 43 7 5 -18 33 -39 33 -24 0 3 -10 32 -21 64 -22 60 -35 73
-45 42z m21 -43 c3 -5 1 -10 -4 -10 -6 0 -11 5 -11 10 0 6 2 10 4 10 3 0 8 -4
11 -10z"/>
<path d="M1117 726 c14 -8 18 -23 18 -56 0 -53 19 -62 21 -10 1 19 2 43 3 53
1 10 5 16 10 12 5 -3 12 -1 16 5 4 6 -11 10 -40 8 -39 -1 -44 -3 -28 -12z"/>
<path d="M1243 729 c-16 -16 -3 -119 15 -119 8 0 9 116 1 125 -3 2 -10 0 -16
-6z"/>
<path d="M1343 720 c-39 -36 -13 -110 39 -110 30 0 59 40 54 74 -9 54 -55 72
-93 36z m55 -2 c32 -32 1 -116 -33 -88 -26 22 -14 100 15 100 3 0 11 -5 18
-12z"/>
<path d="M1499 738 c-1 -2 -2 -29 -3 -61 -1 -37 3 -57 11 -57 7 0 9 14 6 42
-4 29 -3 39 5 34 7 -4 12 -13 12 -19 0 -7 11 -25 25 -42 l24 -30 1 63 c0 39
-4 62 -11 62 -7 0 -9 -10 -5 -24 10 -39 -9 -39 -23 0 -7 18 -19 34 -27 34 -8
0 -15 -1 -15 -2z"/>
</g>
</svg>
